<svg xmlns="http://www.w3.org/2000/svg" width="1000" height="500" viewBox="0 0 1000 500">
  <defs>
    <style>
      .cls-1 {
        fill: #100d0c;
        fill-rule: evenodd;
      }
    </style>
  </defs>
  <path id="Color_Fill_1" data-name="Color Fill 1" class="cls-1" d="M262.089,206.769a4.759,4.759,0,0,0-2.678-.769,5.2,5.2,0,0,0-2.307.513,2.816,2.816,0,0,0-1.709,2.677v23.755a24.088,24.088,0,0,0,.627,5.811,13.343,13.343,0,0,0,3.959,6.608,18.63,18.63,0,0,0,13.244,4.9,19.236,19.236,0,0,0,12.077-3.874,16.475,16.475,0,0,0,3.048-3.048q2.734-3.731,2.734-10.4V209.19a2.785,2.785,0,0,0-.826-2.051A4.273,4.273,0,0,0,287.1,206a4.49,4.49,0,0,0-2.963.968,2.759,2.759,0,0,0-1.025,2.222v22.7q0,11.309-9.855,11.308T263.4,231.891v-22.7a2.729,2.729,0,0,0-1.31-2.421h0Zm67.351,26.689q7.489,0,11.991-2.906,5.44-3.5,5.44-10.88a11.289,11.289,0,0,0-5.9-10.368,22,22,0,0,0-11.308-2.677h-9.741q-6.55,0-6.551,6.579v33.439a2.819,2.819,0,0,0,.826,2.08,4.274,4.274,0,0,0,3.162,1.139,4.014,4.014,0,0,0,3.446-1.453,2.885,2.885,0,0,0,.57-1.766V233.458h8.061Zm-8.061-18.913a1.133,1.133,0,0,1,1.282-1.282H329.9a11.236,11.236,0,0,1,5.469,1.168,5.764,5.764,0,0,1,3.105,5.44,6.222,6.222,0,0,1-2.307,5.184,10.418,10.418,0,0,1-6.551,1.823h-8.232V214.545ZM421.3,231.35a2.4,2.4,0,0,0,1.31-.342,3.16,3.16,0,0,0,1.453-2.934,3.565,3.565,0,0,0-1.025-2.677,2.415,2.415,0,0,0-1.738-.684H403.758v-10.14a0.931,0.931,0,0,1,1.053-1.053h19.2a2.542,2.542,0,0,0,1.367-.371,3.393,3.393,0,0,0,1.481-3.1,3.562,3.562,0,0,0-1.025-2.678,2.481,2.481,0,0,0-1.823-.74H401.764q-6.01,0-6.01,6.01v34.008a2.819,2.819,0,0,0,.826,2.08,4.273,4.273,0,0,0,3.161,1.139,4.063,4.063,0,0,0,3.447-1.453,2.885,2.885,0,0,0,.57-1.766v-15.3H421.3Zm35.507-24.723a18.358,18.358,0,0,0-11.222,9.741A25.27,25.27,0,0,0,443,227.932a24.031,24.031,0,0,0,4.272,14.441q5.669,7.89,16.065,7.89,9.883,0,15.552-7.121,4.841-6.094,4.842-15.21a26.435,26.435,0,0,0-1.595-9.314,19.259,19.259,0,0,0-18.685-12.988,21.4,21.4,0,0,0-6.637,1h0Zm14.84,9.6q3.531,4.274,3.532,11.593a18.434,18.434,0,0,1-2.82,10.567,10.779,10.779,0,0,1-18.229-.313,18.683,18.683,0,0,1-2.621-10.254q0-7.092,3.39-11.422a10.2,10.2,0,0,1,8.4-4.13,10.361,10.361,0,0,1,8.346,3.959h0Zm46.957,14.9,11.877,16.691a4.463,4.463,0,0,0,3.789,2.022,5.532,5.532,0,0,0,2.763-.74A3.228,3.228,0,0,0,538.8,246.1a3.281,3.281,0,0,0-.769-2.136l-11.393-13.843q10.51-1.794,10.51-11.393a10.984,10.984,0,0,0-2.307-6.95,11.333,11.333,0,0,0-3.7-3.133,21.535,21.535,0,0,0-10.027-2.022h-10.4q-7.063,0-7.064,7.063v32.9a2.858,2.858,0,0,0,.456,1.624,3.835,3.835,0,0,0,3.5,1.652,4.373,4.373,0,0,0,3.047-1.054,2.862,2.862,0,0,0,.94-2.222V231.122h7.007ZM511.6,214.317a1.033,1.033,0,0,1,1.168-1.168h7.349q8.458,0,8.459,5.7,0,5.868-8.744,5.867H511.6v-10.4Zm108.669,3.019q0-6.009-5.953-8.829a23.85,23.85,0,0,0-10.283-1.88H593.295q-5.925,0-5.924,5.9v30.761q0,5.925,5.924,5.925h12.02a22.868,22.868,0,0,0,10.6-2.165q6.209-3.218,6.209-9.684,0-8.716-10.453-10.453,8.6-1.767,8.6-9.571h0Zm-25.037-3.418a1.058,1.058,0,0,1,1.225-1.168h7.519a12.388,12.388,0,0,1,5.127.912,4.622,4.622,0,0,1,2.991,4.472,5.019,5.019,0,0,1-3.105,4.643,11.236,11.236,0,0,1-5.183,1.11h-8.574v-9.969Zm8.687,16.207a14.189,14.189,0,0,1,5.953,1.083,5.57,5.57,0,0,1,3.618,5.383,5.1,5.1,0,0,1-2.763,4.956,14.223,14.223,0,0,1-6.209,1.082h-7.776a1.31,1.31,0,0,1-1.51-1.452V230.125h8.687Zm64.56,0.541a2.262,2.262,0,0,0,1.31-.37,3.194,3.194,0,0,0,1.368-2.905,3.524,3.524,0,0,0-1.026-2.735,2.36,2.36,0,0,0-1.652-.626h-18.03v-9.571a0.957,0.957,0,0,1,1.054-1.11h19.483a2.551,2.551,0,0,0,1.338-.342,3.181,3.181,0,0,0,1.51-2.991,3.55,3.55,0,0,0-1.054-2.706,2.615,2.615,0,0,0-1.794-.683H648.114q-5.668,0-5.668,5.668v31.246q0,5.668,5.668,5.668h23.755a2.646,2.646,0,0,0,1.338-.342,3.293,3.293,0,0,0,1.51-3.1,3.735,3.735,0,0,0-.911-2.62,2.534,2.534,0,0,0-1.937-.826H651.5a0.932,0.932,0,0,1-1.054-1.054v-10.6h18.03Zm51.287,0a2.262,2.262,0,0,0,1.31-.37,3.2,3.2,0,0,0,1.367-2.905,3.527,3.527,0,0,0-1.025-2.735,2.362,2.362,0,0,0-1.652-.626h-18.03v-9.571a0.957,0.957,0,0,1,1.054-1.11h19.482a2.552,2.552,0,0,0,1.339-.342,3.183,3.183,0,0,0,1.51-2.991,3.55,3.55,0,0,0-1.054-2.706,2.616,2.616,0,0,0-1.795-.683H699.4q-5.667,0-5.668,5.668v31.246q0,5.668,5.668,5.668h23.755a2.65,2.65,0,0,0,1.339-.342,3.3,3.3,0,0,0,1.51-3.1,3.731,3.731,0,0,0-.912-2.62,2.533,2.533,0,0,0-1.937-.826H702.79a0.931,0.931,0,0,1-1.054-1.054v-10.6h18.03Zm40.206,0.456,11.878,16.691a4.462,4.462,0,0,0,3.788,2.022,5.529,5.529,0,0,0,2.763-.74,3.229,3.229,0,0,0,1.766-2.991,3.281,3.281,0,0,0-.769-2.136l-11.393-13.843q10.51-1.794,10.51-11.393a10.984,10.984,0,0,0-2.307-6.95,11.347,11.347,0,0,0-3.7-3.133,21.531,21.531,0,0,0-10.026-2.022h-10.4q-7.065,0-7.064,7.063v32.9a2.858,2.858,0,0,0,.456,1.624,3.835,3.835,0,0,0,3.5,1.652,4.375,4.375,0,0,0,3.048-1.054,2.866,2.866,0,0,0,.94-2.222V231.122h7.006Zm-7.006-16.805a1.032,1.032,0,0,1,1.167-1.168h7.349q8.46,0,8.46,5.7,0,5.868-8.745,5.867h-8.231v-10.4ZM384.708,301.122l11.877,16.691a4.462,4.462,0,0,0,3.788,2.022,5.529,5.529,0,0,0,2.763-.74A3.229,3.229,0,0,0,404.9,316.1a3.281,3.281,0,0,0-.769-2.136L392.74,300.125q10.51-1.794,10.51-11.393a10.984,10.984,0,0,0-2.307-6.95,11.347,11.347,0,0,0-3.7-3.133,21.531,21.531,0,0,0-10.026-2.022h-10.4q-7.065,0-7.064,7.063v32.9a2.858,2.858,0,0,0,.456,1.624,3.835,3.835,0,0,0,3.5,1.652,4.375,4.375,0,0,0,3.048-1.054,2.866,2.866,0,0,0,.94-2.222V301.122h7.007ZM377.7,284.317a1.032,1.032,0,0,1,1.167-1.168h7.349q8.46,0,8.46,5.7,0,5.868-8.745,5.867H377.7v-10.4Zm71.937,16.349a2.264,2.264,0,0,0,1.31-.37,3.2,3.2,0,0,0,1.367-2.9,3.528,3.528,0,0,0-1.025-2.735,2.362,2.362,0,0,0-1.652-.626h-18.03v-9.571a0.957,0.957,0,0,1,1.054-1.11h19.482a2.552,2.552,0,0,0,1.339-.342,3.182,3.182,0,0,0,1.509-2.991,3.547,3.547,0,0,0-1.054-2.706,2.612,2.612,0,0,0-1.794-.683H429.272q-5.668,0-5.668,5.668v31.246q0,5.668,5.668,5.668h23.755a2.65,2.65,0,0,0,1.339-.342,3.294,3.294,0,0,0,1.509-3.105,3.735,3.735,0,0,0-.911-2.62,2.534,2.534,0,0,0-1.937-.826H432.662a0.931,0.931,0,0,1-1.054-1.054v-10.6h18.03Zm29.155-22.046a3.533,3.533,0,0,0-3.618-2.563,5.037,5.037,0,0,0-2.278.541,3.612,3.612,0,0,0-2.25,3.361,3.116,3.116,0,0,0,.227,1.168l13.359,34.578q1.594,4.16,5.526,4.159,3.959,0,5.554-4.159l13.358-34.578a3.351,3.351,0,0,0,.2-1.168,3.6,3.6,0,0,0-2.592-3.532,5.163,5.163,0,0,0-1.88-.342,3.567,3.567,0,0,0-3.674,2.535l-10.966,30.449Zm52.625,34.693h-4.272a2.219,2.219,0,0,0-1.282.37,2.832,2.832,0,0,0-1.225,2.564,2.988,2.988,0,0,0,.912,2.335,2.219,2.219,0,0,0,1.595.627H543.58a2.265,2.265,0,0,0,1.311-.37,2.876,2.876,0,0,0,1.224-2.564,3.043,3.043,0,0,0-.883-2.336,2.359,2.359,0,0,0-1.652-.626h-4.244v-30.79h4.244a2.266,2.266,0,0,0,1.311-.371,2.874,2.874,0,0,0,1.224-2.563,3.043,3.043,0,0,0-.883-2.336,2.359,2.359,0,0,0-1.652-.626H527.146a2.211,2.211,0,0,0-1.282.37,2.831,2.831,0,0,0-1.225,2.563,3.046,3.046,0,0,0,.912,2.336,2.219,2.219,0,0,0,1.595.627h4.272v30.79Zm60.743-12.647a2.262,2.262,0,0,0,1.31-.37,3.194,3.194,0,0,0,1.367-2.9,3.525,3.525,0,0,0-1.025-2.735,2.362,2.362,0,0,0-1.652-.626h-18.03v-9.571a0.957,0.957,0,0,1,1.054-1.11h19.483a2.551,2.551,0,0,0,1.338-.342,3.181,3.181,0,0,0,1.51-2.991,3.55,3.55,0,0,0-1.054-2.706,2.615,2.615,0,0,0-1.794-.683H571.8q-5.668,0-5.668,5.668v31.246q0,5.668,5.668,5.668h23.755a2.648,2.648,0,0,0,1.338-.342,3.293,3.293,0,0,0,1.51-3.105,3.731,3.731,0,0,0-.912-2.62,2.531,2.531,0,0,0-1.936-.826H575.185a0.931,0.931,0,0,1-1.054-1.054v-10.6h18.03Zm28.757-21.989a3.284,3.284,0,0,0-3.561-2.705,5.23,5.23,0,0,0-2.364.569,3.142,3.142,0,0,0-1.908,2.905,3.624,3.624,0,0,0,.142.969l8.972,34.949q1.168,4.5,5.64,4.5a5.534,5.534,0,0,0,4.13-1.624,6.016,6.016,0,0,0,1.538-2.99l6.323-28.17,6.295,28.17a6.38,6.38,0,0,0,1.339,2.791,5.479,5.479,0,0,0,4.3,1.823q4.5,0,5.668-4.5l8.972-34.949a3.624,3.624,0,0,0,.142-0.969,3.157,3.157,0,0,0-2.478-3.161A5.716,5.716,0,0,0,662.3,276a3.293,3.293,0,0,0-3.588,2.677l-7.235,29.737L645.413,280.9q-1.026-4.728-5.611-4.728-4.558,0-5.583,4.728l-6.067,27.515Z"/>
</svg>
